<svg version="1.0" xmlns="http://www.w3.org/2000/svg"
 width="316.000000pt" height="268.000000pt" viewBox="0 0 316.000000 268.000000"
 preserveAspectRatio="xMidYMid meet">

<g transform="translate(0.000000,268.000000) scale(0.100000,-0.100000)"
fill="#000000" stroke="none">
<path d="M340 2513 c-25 -8 -51 -16 -57 -19 -10 -2 -13 -34 -13 -114 0 -99 2
-110 18 -110 10 0 27 -7 38 -15 10 -8 26 -15 35 -15 8 0 25 -10 37 -23 20 -22
22 -33 22 -164 0 -159 -3 -167 -81 -184 -67 -15 -69 -19 -69 -133 l1 -101 38
-17 c20 -10 42 -18 48 -18 6 0 22 -9 37 -21 l26 -20 0 -158 c0 -171 -8 -201
-55 -201 -13 0 -40 -8 -60 -17 l-35 -17 0 -102 0 -102 48 -18 c26 -10 49 -20
52 -24 3 -3 16 -11 30 -18 l25 -13 -5 -163 c-5 -167 -12 -196 -48 -196 -9 0
-36 -7 -59 -16 l-43 -17 0 -99 c0 -101 9 -128 42 -128 8 0 23 -7 34 -15 10 -8
34 -15 52 -15 l32 0 0 88 0 87 33 17 c17 10 51 23 74 30 52 15 63 35 25 44
-15 3 -36 9 -47 14 -11 5 -30 11 -42 15 -21 6 -22 12 -28 183 -11 361 -11 374
5 383 47 25 86 39 107 39 13 0 23 6 23 13 0 12 -28 27 -107 58 -21 8 -22 15
-28 181 -3 95 -6 220 -8 277 l-2 104 70 24 c39 14 72 26 74 29 10 10 -26 35
-60 40 -63 10 -67 22 -73 184 -3 80 -8 193 -11 253 -6 98 -5 108 12 113 133
44 156 72 76 93 -73 20 -133 21 -183 4z"/>
<path d="M1136 2522 c-3 -5 -23 -12 -45 -16 -41 -6 -51 -19 -51 -65 0 -49 -8
-51 -238 -51 -198 0 -213 -1 -210 -17 3 -16 24 -19 223 -23 121 -4 221 -7 223
-8 1 -1 2 -17 2 -34 0 -28 6 -35 38 -49 57 -24 105 -39 110 -34 2 2 5 43 7 92
3 110 2 103 23 103 10 0 22 4 28 9 5 5 25 13 44 18 24 6 36 16 38 30 3 18 -5
23 -45 33 -69 17 -140 23 -147 12z"/>
<path d="M1870 2513 c-25 -8 -51 -16 -57 -19 -7 -2 -14 -17 -14 -34 -1 -16 -3
-34 -4 -40 -1 -5 -3 -14 -4 -20 -1 -6 -80 -10 -217 -10 -200 0 -215 -1 -212
-17 3 -16 23 -18 216 -21 l212 -2 6 -40 c4 -22 11 -40 16 -40 10 0 67 -23 100
-41 40 -21 48 -12 46 49 -3 107 1 132 20 138 132 44 154 72 75 93 -73 20 -133
21 -183 4z"/>
<path d="M2667 2523 c-5 -4 -27 -13 -50 -18 -40 -10 -42 -13 -45 -50 -2 -22
-8 -45 -14 -52 -8 -10 -64 -13 -225 -13 -199 0 -214 -1 -211 -17 3 -16 22 -18
212 -21 134 -1 214 -6 223 -13 7 -6 13 -23 13 -38 0 -21 9 -29 43 -44 101 -43
92 -24 95 -191 2 -139 1 -151 -18 -171 -12 -13 -37 -25 -56 -28 -48 -8 -64
-23 -64 -61 0 -18 -5 -37 -12 -44 -9 -9 -73 -12 -226 -12 -198 0 -213 -1 -210
-17 3 -16 22 -18 212 -21 134 -1 214 -6 223 -13 7 -6 13 -23 13 -38 0 -21 9
-29 43 -44 23 -10 50 -23 59 -28 10 -5 26 -9 36 -9 17 0 18 7 15 79 -4 78 6
121 28 121 6 0 25 6 42 14 18 8 40 16 50 20 9 3 17 14 17 25 0 16 -9 21 -45
26 -24 4 -50 14 -57 23 -8 10 -16 68 -21 166 -4 83 -9 191 -12 240 -2 49 0 96
5 105 7 14 48 33 113 55 9 3 17 14 17 25 0 15 -11 22 -47 31 -67 17 -137 23
-146 13z"/>
<path d="M1140 1881 c-8 -5 -33 -13 -55 -18 l-40 -8 -2 -110 -3 -110 38 -17
c21 -10 43 -18 48 -18 5 -1 19 -9 32 -19 21 -18 22 -26 22 -178 0 -112 -4
-164 -12 -176 -7 -9 -38 -24 -68 -35 l-55 -18 -3 -106 -3 -105 38 -17 c21 -10
53 -25 71 -34 l32 -17 -2 -170 -3 -170 -42 -22 c-23 -12 -52 -23 -65 -25 -22
-3 -23 -6 -23 -112 0 -87 3 -110 15 -116 8 -4 30 -14 48 -23 19 -9 46 -17 62
-17 l28 0 -2 68 c-2 103 5 116 71 142 90 36 94 45 31 65 -88 27 -82 12 -91
232 -4 109 -9 223 -11 253 -3 66 10 110 32 110 20 0 112 42 112 51 0 9 -64 39
-83 39 -34 0 -42 30 -49 199 -3 91 -8 192 -11 223 -3 31 -2 78 1 103 4 39 9
48 31 56 14 5 34 14 43 19 10 6 27 10 39 10 15 0 20 5 17 23 -2 17 -14 25 -53
36 -67 18 -117 23 -135 12z"/>
<path d="M1895 1878 c-58 -19 -100 -43 -101 -58 -1 -8 -2 -27 -3 -42 l-1 -28
-216 0 c-200 0 -215 -1 -212 -17 3 -16 22 -18 208 -21 220 -2 230 -5 230 -56
1 -21 58 -56 93 -56 9 0 19 -4 22 -10 3 -5 15 -10 25 -10 16 0 18 8 16 72 -5
118 -2 121 121 159 29 9 31 12 20 29 -6 11 -27 22 -47 26 -19 3 -43 9 -52 15
-22 11 -63 10 -103 -3z"/>
<path d="M1320 1610 c0 -12 12 -24 110 -110 40 -36 90 -79 109 -97 20 -18 47
-41 61 -53 23 -20 89 -79 159 -143 18 -17 32 -40 32 -55 1 -15 3 -58 4 -97 2
-38 3 -74 4 -80 1 -5 20 -18 44 -29 23 -10 50 -22 59 -27 10 -5 26 -9 36 -9
16 0 18 10 20 86 1 82 11 114 36 114 6 0 23 6 37 14 14 7 37 16 52 20 34 8 34
19 0 36 -62 29 -111 35 -203 25 -53 -6 -56 -5 -95 32 -22 21 -87 79 -145 130
-58 50 -125 109 -149 132 -24 22 -47 41 -50 41 -3 0 -25 18 -49 40 -41 38 -72
51 -72 30z"/>
<path d="M2090 937 c0 -13 156 -167 169 -167 3 0 29 -22 57 -48 28 -26 92 -83
142 -126 50 -44 94 -86 99 -95 4 -9 10 -61 13 -115 4 -74 9 -101 20 -106 8 -4
31 -15 51 -24 20 -10 47 -16 59 -14 21 3 23 8 24 87 l1 83 35 18 c19 10 52 27
73 37 21 10 40 21 43 24 5 8 -78 36 -132 45 -22 3 -56 2 -75 -3 -57 -16 -72
-7 -206 114 -18 17 -50 45 -71 64 -20 19 -64 57 -97 84 -33 28 -69 59 -80 71
-25 26 -105 84 -117 84 -4 0 -8 -6 -8 -13z"/>
</g>
</svg>